<svg width="192" height="36" viewBox="0 0 192 36" fill="none" xmlns="http://www.w3.org/2000/svg">
<path d="M22.1094 30.1802C21.5472 30.1801 21.0012 29.9924 20.5578 29.6467L15.52 25.7441L12.1423 29.4722C11.9937 29.6361 11.8042 29.7576 11.5932 29.8243C11.3822 29.891 11.1573 29.9005 10.9414 29.8519C10.7255 29.8032 10.5264 29.6981 10.3645 29.5473C10.2025 29.3966 10.0835 29.2055 10.0195 28.9936L7.49389 20.6416L2.96263 19.0657C2.47344 18.8952 2.04769 18.58 1.74194 18.1618C1.43619 17.7436 1.26492 17.2423 1.25088 16.7245C1.23683 16.2066 1.38069 15.6968 1.66332 15.2626C1.94596 14.8285 2.354 14.4906 2.83323 14.2939L25.2331 5.24975C25.6605 5.076 26.127 5.02132 26.583 5.09153C27.0391 5.16173 27.4675 5.35419 27.8229 5.64845C28.1782 5.9427 28.4472 6.32776 28.6012 6.76267C28.7552 7.19758 28.7885 7.6661 28.6975 8.11841L24.6191 28.1392C24.4983 28.7156 24.183 29.233 23.7261 29.6046C23.2691 29.9762 22.6983 30.1794 22.1093 30.1802H22.1094Z" fill="#A2A1FF"/>
<path d="M11.2158 29.8823C10.9476 29.8824 10.6865 29.7961 10.471 29.6363C10.2556 29.4765 10.0973 29.2516 10.0196 28.9948L7.30959 20.0458C7.22487 19.767 7.24038 19.4673 7.35341 19.1987C7.46644 18.93 7.66988 18.7094 7.92847 18.575L21.1377 11.6975C21.4025 11.5593 21.708 11.5206 21.9989 11.5882C22.2898 11.6559 22.5469 11.8255 22.7235 12.0663C22.9002 12.3072 22.9847 12.6033 22.9619 12.9011C22.939 13.1989 22.8102 13.4787 22.5989 13.6897L13.7451 22.5434L12.4402 28.8837C12.3844 29.1562 12.2394 29.4022 12.028 29.5828C11.8166 29.7635 11.551 29.8684 11.2732 29.8811C11.2537 29.8823 11.2341 29.8823 11.2158 29.8823Z" fill="#6563FF"/>
<path d="M39.152 29V7.18182H47.3338C49.0099 7.18182 50.4162 7.49432 51.5526 8.11932C52.696 8.74432 53.5589 9.60369 54.1413 10.6974C54.7308 11.7841 55.0256 13.0199 55.0256 14.4048C55.0256 15.804 54.7308 17.0469 54.1413 18.1335C53.5518 19.2202 52.6818 20.076 51.5312 20.701C50.3807 21.3189 48.9638 21.6278 47.2805 21.6278H41.858V18.3786H46.7479C47.728 18.3786 48.5305 18.2081 49.1555 17.8672C49.7805 17.5263 50.2422 17.0575 50.5405 16.4609C50.8459 15.8643 50.9986 15.179 50.9986 14.4048C50.9986 13.6307 50.8459 12.9489 50.5405 12.3594C50.2422 11.7699 49.777 11.3118 49.1449 10.9851C48.5199 10.6513 47.7138 10.4844 46.7266 10.4844H43.1044V29H39.152ZM62.479 29.3303C61.4421 29.3303 60.5081 29.1456 59.6772 28.7763C58.8533 28.3999 58.1999 27.8459 57.7169 27.1143C57.2411 26.3828 57.0032 25.4808 57.0032 24.4084C57.0032 23.4851 57.1736 22.7216 57.5145 22.1179C57.8554 21.5142 58.3206 21.0312 58.9101 20.669C59.4996 20.3068 60.1637 20.0334 60.9023 19.8487C61.648 19.657 62.4186 19.5185 63.2141 19.4332C64.1729 19.3338 64.9506 19.245 65.5472 19.1669C66.1438 19.0817 66.577 18.9538 66.8469 18.7834C67.1239 18.6058 67.2624 18.3324 67.2624 17.9631V17.8991C67.2624 17.0966 67.0245 16.4751 66.5486 16.0348C66.0728 15.5945 65.3874 15.3743 64.4925 15.3743C63.5479 15.3743 62.7986 15.5803 62.2446 15.9922C61.6978 16.4041 61.3284 16.8906 61.1367 17.4517L57.5358 16.9403C57.8199 15.946 58.2887 15.1151 58.9421 14.4474C59.5955 13.7727 60.3945 13.2685 61.3391 12.9347C62.2837 12.5938 63.3277 12.4233 64.4712 12.4233C65.2596 12.4233 66.0444 12.5156 66.8256 12.7003C67.6069 12.8849 68.3206 13.1903 68.9669 13.6165C69.6132 14.0355 70.1317 14.6072 70.5223 15.3317C70.9201 16.0561 71.1189 16.9616 71.1189 18.0483V29H67.4115V26.7521H67.2837C67.0493 27.2067 66.7191 27.6328 66.2929 28.0305C65.8739 28.4212 65.3448 28.7372 64.7056 28.9787C64.0735 29.2131 63.3313 29.3303 62.479 29.3303ZM63.4804 26.4964C64.2546 26.4964 64.9257 26.3437 65.4939 26.0384C66.0621 25.7259 66.4989 25.3139 66.8043 24.8026C67.1168 24.2912 67.273 23.7337 67.273 23.13V21.2017C67.1523 21.3011 66.9463 21.3935 66.6551 21.4787C66.3711 21.5639 66.0515 21.6385 65.6963 21.7024C65.3412 21.7663 64.9897 21.8232 64.6417 21.8729C64.2936 21.9226 63.9918 21.9652 63.7361 22.0007C63.1608 22.0788 62.6459 22.2067 62.1914 22.3842C61.7368 22.5618 61.3782 22.8104 61.1154 23.13C60.8526 23.4425 60.7212 23.8473 60.7212 24.3445C60.7212 25.0547 60.9804 25.5909 61.4989 25.9531C62.0174 26.3153 62.6779 26.4964 63.4804 26.4964ZM74.7718 35.1364V12.6364H78.5644V15.3423H78.7881C78.987 14.9446 79.2675 14.522 79.6297 14.0746C79.9919 13.62 80.482 13.233 81.0999 12.9134C81.7178 12.5866 82.5061 12.4233 83.4649 12.4233C84.7292 12.4233 85.8691 12.7464 86.8847 13.3928C87.9074 14.032 88.7171 14.9801 89.3137 16.2372C89.9174 17.4872 90.2192 19.0213 90.2192 20.8395C90.2192 22.6364 89.9245 24.1634 89.335 25.4205C88.7455 26.6776 87.9429 27.6364 86.9273 28.2969C85.9117 28.9574 84.7611 29.2876 83.4756 29.2876C82.5381 29.2876 81.7604 29.1314 81.1425 28.8189C80.5246 28.5064 80.0274 28.13 79.651 27.6896C79.2817 27.2422 78.9941 26.8196 78.7881 26.4219H78.6283V35.1364H74.7718ZM78.5537 20.8182C78.5537 21.8764 78.7029 22.8033 79.0012 23.5987C79.3066 24.3942 79.7434 25.0156 80.3115 25.4631C80.8868 25.9034 81.5828 26.1236 82.3996 26.1236C83.2519 26.1236 83.9657 25.8963 84.5409 25.4418C85.1162 24.9801 85.5495 24.3516 85.8407 23.5561C86.139 22.7536 86.2881 21.8409 86.2881 20.8182C86.2881 19.8026 86.1425 18.9006 85.8513 18.1122C85.5601 17.3239 85.1269 16.706 84.5516 16.2585C83.9763 15.8111 83.259 15.5874 82.3996 15.5874C81.5757 15.5874 80.8762 15.804 80.3009 16.2372C79.7256 16.6705 79.2888 17.2777 78.9905 18.0589C78.6993 18.8402 78.5537 19.7599 78.5537 20.8182ZM100.541 29.3196C98.9005 29.3196 97.4836 28.9787 96.2904 28.2969C95.1043 27.608 94.1917 26.6349 93.5525 25.3778C92.9132 24.1136 92.5936 22.6257 92.5936 20.9141C92.5936 19.2308 92.9132 17.7536 93.5525 16.4822C94.1988 15.2038 95.1007 14.2095 96.2584 13.4993C97.4161 12.782 98.7762 12.4233 100.339 12.4233C101.347 12.4233 102.299 12.5866 103.194 12.9134C104.096 13.233 104.891 13.7301 105.58 14.4048C106.276 15.0795 106.823 15.9389 107.221 16.983C107.619 18.0199 107.817 19.2557 107.817 20.6903V21.8729H94.4047V19.2734H104.121C104.114 18.5348 103.954 17.8778 103.641 17.3026C103.329 16.7202 102.892 16.2621 102.331 15.9283C101.777 15.5945 101.131 15.4276 100.392 15.4276C99.6036 15.4276 98.9111 15.6193 98.3145 16.0028C97.7179 16.3793 97.2527 16.8764 96.9189 17.4943C96.5922 18.1051 96.4253 18.7763 96.4182 19.5078V21.777C96.4182 22.7287 96.5922 23.5455 96.9402 24.2273C97.2882 24.902 97.7748 25.4205 98.3998 25.7827C99.0248 26.1378 99.7563 26.3153 100.594 26.3153C101.155 26.3153 101.663 26.2372 102.118 26.081C102.572 25.9176 102.967 25.6797 103.3 25.3672C103.634 25.0547 103.886 24.6676 104.057 24.206L107.658 24.6108C107.43 25.5625 106.997 26.3935 106.358 27.1037C105.726 27.8068 104.916 28.3537 103.929 28.7443C102.942 29.1278 101.812 29.3196 100.541 29.3196ZM110.855 29V12.6364H114.594V15.3636H114.765C115.063 14.419 115.574 13.6911 116.299 13.1797C117.03 12.6612 117.865 12.402 118.802 12.402C119.015 12.402 119.253 12.4126 119.516 12.4339C119.786 12.4482 120.01 12.473 120.187 12.5085V16.0561C120.024 15.9993 119.765 15.9496 119.41 15.907C119.062 15.8572 118.724 15.8324 118.398 15.8324C117.694 15.8324 117.062 15.9851 116.501 16.2905C115.947 16.5888 115.511 17.0043 115.191 17.5369C114.871 18.0696 114.712 18.6839 114.712 19.38V29H110.855ZM120.037 10.495V7.18182H137.445V10.495H130.701V29H126.781V10.495H120.037ZM138.706 29V12.6364H142.445V15.3636H142.616C142.914 14.419 143.425 13.6911 144.15 13.1797C144.881 12.6612 145.716 12.402 146.653 12.402C146.866 12.402 147.104 12.4126 147.367 12.4339C147.637 12.4482 147.861 12.473 148.038 12.5085V16.0561C147.875 15.9993 147.616 15.9496 147.26 15.907C146.912 15.8572 146.575 15.8324 146.248 15.8324C145.545 15.8324 144.913 15.9851 144.352 16.2905C143.798 16.5888 143.361 17.0043 143.042 17.5369C142.722 18.0696 142.562 18.6839 142.562 19.38V29H138.706ZM154.791 29.3303C153.754 29.3303 152.82 29.1456 151.989 28.7763C151.165 28.3999 150.512 27.8459 150.029 27.1143C149.553 26.3828 149.315 25.4808 149.315 24.4084C149.315 23.4851 149.486 22.7216 149.827 22.1179C150.168 21.5142 150.633 21.0312 151.222 20.669C151.812 20.3068 152.476 20.0334 153.214 19.8487C153.96 19.657 154.731 19.5185 155.526 19.4332C156.485 19.3338 157.263 19.245 157.859 19.1669C158.456 19.0817 158.889 18.9538 159.159 18.7834C159.436 18.6058 159.575 18.3324 159.575 17.9631V17.8991C159.575 17.0966 159.337 16.4751 158.861 16.0348C158.385 15.5945 157.7 15.3743 156.805 15.3743C155.86 15.3743 155.111 15.5803 154.557 15.9922C154.01 16.4041 153.641 16.8906 153.449 17.4517L149.848 16.9403C150.132 15.946 150.601 15.1151 151.254 14.4474C151.908 13.7727 152.707 13.2685 153.651 12.9347C154.596 12.5938 155.64 12.4233 156.783 12.4233C157.572 12.4233 158.356 12.5156 159.138 12.7003C159.919 12.8849 160.633 13.1903 161.279 13.6165C161.925 14.0355 162.444 14.6072 162.834 15.3317C163.232 16.0561 163.431 16.9616 163.431 18.0483V29H159.724V26.7521H159.596C159.361 27.2067 159.031 27.6328 158.605 28.0305C158.186 28.4212 157.657 28.7372 157.018 28.9787C156.386 29.2131 155.643 29.3303 154.791 29.3303ZM155.793 26.4964C156.567 26.4964 157.238 26.3437 157.806 26.0384C158.374 25.7259 158.811 25.3139 159.116 24.8026C159.429 24.2912 159.585 23.7337 159.585 23.13V21.2017C159.464 21.3011 159.258 21.3935 158.967 21.4787C158.683 21.5639 158.364 21.6385 158.008 21.7024C157.653 21.7663 157.302 21.8232 156.954 21.8729C156.606 21.9226 156.304 21.9652 156.048 22.0007C155.473 22.0788 154.958 22.2067 154.503 22.3842C154.049 22.5618 153.69 22.8104 153.427 23.13C153.165 23.4425 153.033 23.8473 153.033 24.3445C153.033 25.0547 153.293 25.5909 153.811 25.9531C154.329 26.3153 154.99 26.4964 155.793 26.4964ZM167.084 29V12.6364H170.94V29H167.084ZM169.023 10.3139C168.412 10.3139 167.886 10.1115 167.446 9.70668C167.006 9.29474 166.786 8.80114 166.786 8.22585C166.786 7.64347 167.006 7.14986 167.446 6.74503C167.886 6.3331 168.412 6.12713 169.023 6.12713C169.641 6.12713 170.166 6.3331 170.599 6.74503C171.04 7.14986 171.26 7.64347 171.26 8.22585C171.26 8.80114 171.04 9.29474 170.599 9.70668C170.166 10.1115 169.641 10.3139 169.023 10.3139ZM178.538 7.18182V29H174.681V7.18182H178.538Z" fill="#0F172A"/>
</svg>
